<svg width="356" height="219" viewBox="0 0 356 219" fill="none" xmlns="http://www.w3.org/2000/svg">
<path d="M178.2 25.6V0L146.2 32L178.2 64V38.4C199.32 38.4 216.6 55.68 216.6 76.8C216.6 97.92 199.32 115.2 178.2 115.2C157.08 115.2 139.8 97.92 139.8 76.8H127C127 104.96 150.04 128 178.2 128C206.36 128 229.4 104.96 229.4 76.8C229.4 48.64 206.36 25.6 178.2 25.6Z" fill="white"/>
<path d="M40.7782 179.58C45.1582 183.24 47.3182 187.68 47.3182 191.7C47.3182 197.88 41.5582 201.72 32.5582 201.72C25.7782 201.72 22.5382 198.12 22.5382 192.48C22.5382 191.04 22.6582 188.94 22.8982 186.6C23.6182 186.6 24.3382 186.6 25.0582 186.6C29.0782 186.6 32.7382 186.48 36.6982 186.06L36.8182 181.5C32.6782 182.04 28.4782 182.22 24.4582 182.22H23.3182C23.7382 178.8 24.1582 175.08 24.6382 171.6H25.0582C29.7982 171.6 33.3382 171.36 37.1182 171L37.2382 166.5C33.7582 166.98 29.7382 167.22 25.2382 167.22C25.5382 164.76 25.8382 162.66 26.0182 161.16C26.1982 159.84 26.3782 158.64 26.7982 157.02L21.3982 156.72C21.5182 158.16 21.4582 159.48 21.3382 160.86C21.2182 162.48 20.9782 164.64 20.6782 167.04C16.2382 166.8 11.4382 166.08 7.7182 164.88L7.4782 169.32C11.1982 170.28 15.8782 171 20.1382 171.36C19.7182 174.84 19.2382 178.56 18.8182 182.04C14.6182 181.74 10.1782 181.02 6.2782 179.64L6.0382 184.2C9.6382 185.34 13.9582 186 18.3982 186.36C18.0982 189.18 17.9182 191.58 17.9182 193.2C17.9182 202.92 24.4582 206.46 32.5582 206.46C44.2582 206.46 52.2382 201.06 52.2382 192.24C52.2382 187.14 50.1982 183 46.1182 178.5L40.7782 179.58ZM100.862 183.9C100.862 194.58 90.6618 200.22 76.2618 202.02L79.0818 206.58C94.5018 204.3 105.962 196.98 105.962 184.08C105.962 175.62 99.6618 170.88 91.2018 170.88C84.4218 170.88 77.6418 172.8 73.4418 173.76C71.7018 174.12 69.6618 174.48 68.0418 174.66L69.5418 180.18C70.9818 179.64 72.7218 178.92 74.5218 178.44C78.0618 177.42 83.8818 175.38 90.7218 175.38C96.8418 175.38 100.862 178.92 100.862 183.9ZM75.9618 157.14L75.1818 161.7C81.9018 162.9 93.9018 164.1 100.502 164.52L101.222 159.9C95.4018 159.84 82.5018 158.64 75.9618 157.14ZM120.222 178.2V183.06H174.702V178.2H120.222ZM213.922 187.74H199.402V174.06H213.922V187.74ZM195.142 170.04V191.7H218.302V170.04H195.142ZM186.502 201.12V160.74H227.002V201.12H186.502ZM182.002 156.3V208.56H186.502V205.32H227.002V208.56H231.742V156.3H182.002ZM251.882 179.7H280.802V185.94H251.882V179.7ZM251.882 169.74H280.802V175.92H251.882V169.74ZM251.882 159.9H280.802V166.02H251.882V159.9ZM277.742 203.88C275.162 203.88 274.682 203.58 274.682 201.84V189.9H285.302V155.88H247.562V189.9H255.662C254.402 197.58 251.222 202.26 238.922 204.72C239.822 205.62 241.082 207.48 241.442 208.62C255.062 205.5 258.902 199.5 260.342 189.9H270.182V201.9C270.182 206.76 271.682 208.08 277.322 208.08H286.982C292.022 208.08 293.342 205.92 293.882 197.22C292.622 196.92 290.702 196.2 289.742 195.42C289.502 202.8 289.022 203.88 286.622 203.88H277.742ZM325.782 202.02C321.342 202.02 317.922 200.34 317.922 197.4C317.922 195.36 319.962 193.74 322.662 193.74C327.162 193.74 329.982 196.98 330.522 201.66C329.082 201.9 327.462 202.02 325.782 202.02ZM338.022 158.88C337.362 159.06 336.522 159.18 334.782 159.36C331.662 159.66 317.562 160.08 314.502 160.08C313.302 160.08 311.622 160.08 310.302 159.9L310.422 164.88C311.682 164.64 313.062 164.58 314.442 164.52C317.502 164.34 329.202 163.8 332.322 163.68C329.382 166.32 322.002 172.56 318.702 175.32C315.222 178.2 307.602 184.56 302.682 188.64L306.162 192.18C313.722 184.5 319.122 180.36 328.902 180.36C336.402 180.36 342.282 184.62 342.282 190.44C342.282 195.3 339.582 198.72 334.902 200.52C334.122 195 330.102 190.02 322.662 190.02C317.142 190.02 313.482 193.74 313.482 197.82C313.482 202.74 318.462 206.34 326.562 206.34C339.102 206.34 347.082 200.1 347.082 190.5C347.082 182.46 339.942 176.46 330.042 176.46C327.402 176.46 324.702 176.82 322.002 177.72C326.562 173.88 334.542 166.86 337.482 164.64C338.382 163.98 339.702 163.08 340.782 162.36L338.022 158.88Z" fill="white"/>
</svg>
